<svg version="1.1" id="Layer_1" xmlns="http://www.w3.org/2000/svg" xmlns:xlink="http://www.w3.org/1999/xlink" x="0px" y="0px"
	 width="100%" viewBox="0 0 336 464" enable-background="new 0 0 336 464" xml:space="preserve">
<path fill="#000000" opacity="1.000000" stroke="none" 
	d="
M18.453526,122.611359 
	C31.150900,75.040443 60.455379,41.321682 104.105080,21.121450 
	C157.012253,-3.362962 209.866028,-1.853291 260.406250,28.596161 
	C296.242035,50.186497 316.906799,82.782822 325.299164,123.481697 
	C327.391235,133.627167 328.345154,143.827194 328.376740,154.204727 
	C328.588196,223.686722 328.926300,293.168488 329.389130,362.649200 
	C329.419861,367.263916 328.104034,369.787445 323.839142,371.892578 
	C273.950867,396.516937 224.153610,421.325928 174.372787,446.167297 
	C170.199631,448.249756 166.412613,448.728821 162.054169,446.580261 
	C114.387032,423.082031 66.677025,399.670654 18.939842,376.314972 
	C15.945451,374.849915 14.772331,372.760590 14.870795,369.611633 
	C14.943683,367.280701 14.885997,364.945618 14.883984,362.612396 
	C14.823287,292.283203 14.793335,221.953964 14.665366,151.624908 
	C14.647663,141.895798 15.728721,132.369110 18.453526,122.611359 
M103.053703,43.579285 
	C83.932098,53.355175 67.286629,66.315956 54.448109,83.552704 
	C38.712975,104.678406 28.197542,127.744804 29.196518,155.061172 
	C29.883936,173.858078 29.655064,192.694794 29.902628,211.513840 
	C30.384817,248.167999 30.291161,284.830017 30.363161,321.488892 
	C30.370239,325.092438 31.034069,327.832092 34.704105,329.602295 
	C61.257523,342.410248 87.766129,355.312012 114.219612,368.324982 
	C117.533188,369.954956 120.185349,370.030945 123.492409,368.214172 
	C135.609070,361.557739 147.983047,355.367767 160.065414,348.651794 
	C164.584045,346.140106 168.368530,345.877350 173.105881,348.251617 
	C186.653320,355.041290 200.517776,361.196564 214.103088,367.913727 
	C218.136200,369.907867 221.389694,369.765808 225.331131,367.727661 
	C253.444870,353.189789 281.623322,338.775299 309.883209,324.523956 
	C313.569977,322.664734 314.795044,320.437012 314.744385,316.408905 
	C314.310425,281.929413 315.076141,247.446030 314.073303,212.962265 
	C313.526154,194.147949 313.603729,175.300232 313.975128,156.478943 
	C314.305573,139.733063 310.510315,123.907890 303.213348,109.192535 
	C276.323242,54.964813 230.733078,29.803690 171.730164,27.719698 
	C148.068680,26.883972 125.097595,32.388920 103.053703,43.579285 
z"/>
<path fill="#000000" opacity="1.000000" stroke="none" 
	d="
M197.056610,194.197906 
	C178.721054,199.298477 161.161758,205.658157 142.933868,209.660446 
	C138.004089,210.742889 133.357086,209.371964 128.988983,207.162994 
	C126.088310,205.696106 124.632843,203.118469 124.554398,199.852020 
	C124.306488,189.530106 124.011375,179.208542 123.875237,168.884979 
	C123.741219,158.722366 123.786667,148.557434 123.734825,138.393631 
	C123.724548,136.378876 123.866257,134.417862 124.673790,132.523972 
	C127.302925,126.357918 132.691376,124.809265 137.287872,129.764633 
	C153.683304,147.440186 175.130905,156.582245 196.642059,165.640350 
	C203.384247,168.479385 210.343063,170.809586 217.800201,171.212372 
	C221.934814,171.435715 224.675858,173.659805 225.270050,177.914841 
	C225.928360,182.629089 224.312180,186.099747 219.455719,187.547333 
	C212.120041,189.733902 204.783829,191.918655 197.056610,194.197906 
M188.765930,177.451553 
	C190.658157,175.943222 193.139923,174.914749 193.347534,171.852966 
	C192.832031,171.427032 192.391968,170.876999 191.820129,170.618835 
	C182.871750,166.579086 173.927139,162.529633 164.936096,158.586349 
	C160.468506,156.626968 158.982101,157.565079 158.421387,162.405060 
	C158.226608,164.086365 158.549026,165.688416 159.071182,167.305573 
	C162.659088,178.417694 176.116852,183.307358 188.765930,177.451553 
z"/>
<path fill="#000000" opacity="1.000000" stroke="none" 
	d="
M279.952148,198.197113 
	C265.386139,193.852798 251.227661,189.547226 237.027435,185.384033 
	C233.121521,184.238907 230.299881,182.527069 230.678848,177.872040 
	C231.047363,173.345261 234.319046,172.608490 237.929962,171.776184 
	C260.000977,166.688919 280.042633,157.565994 296.581390,141.675781 
	C298.809143,139.535385 301.069672,137.365646 304.430023,138.808929 
	C307.621704,140.179764 308.318054,143.130508 308.312866,146.289124 
	C308.287720,161.605789 308.326019,176.923172 308.178101,192.238739 
	C308.112030,199.079590 301.914734,203.326462 293.820129,201.905457 
	C289.257080,201.104416 284.831451,199.520676 279.952148,198.197113 
M279.539673,161.798691 
	C271.281403,165.021988 263.058594,168.318939 255.328903,172.802597 
	C259.520416,179.381287 268.550934,180.870865 275.417511,176.570343 
	C281.228302,172.931030 283.099335,167.209595 279.539673,161.798691 
z"/>
<path fill="#000000" opacity="1.000000" stroke="none" 
	d="
M165.113434,294.229950 
	C159.180893,293.582275 153.726562,292.992737 148.285187,292.301239 
	C140.510971,291.313232 135.274277,286.846100 131.707504,280.091797 
	C128.467163,273.955566 126.208046,267.553253 126.774696,260.505951 
	C127.353348,253.309479 132.030823,250.854874 138.150528,254.650620 
	C142.815857,257.544281 147.220291,260.861084 151.717239,264.023163 
	C168.527740,275.843567 187.172089,281.963287 207.733383,282.802673 
	C216.519730,283.161407 225.262115,284.609253 234.022385,285.581177 
	C235.648285,285.761566 237.418625,285.711151 238.376434,287.808746 
	C237.122528,290.976196 234.018814,290.861359 231.395538,291.286621 
	C210.580811,294.661102 189.580536,294.335052 168.596878,294.288391 
	C167.597031,294.286163 166.597260,294.258392 165.113434,294.229950 
z"/>
</svg>